<svg xmlns="http://www.w3.org/2000/svg" xml:space="preserve" viewBox="0 0 24.2 29.4"><path fill="#fff" fill-rule="evenodd" d="M9.6 0C17-.5 21.9 2.8 24 10c.5 3.5-.2 6.8-2.1 9.8L12 29.4a63.9 63.9 0 0 1-4.8-5c-1.6-3.2-1-6 1.7-8.3 4.1-3 8.3-5.8 12.5-8.6.2-.3.3-.7.2-1-.9 0-1.7.1-2.6.3l-6 2.8a22 22 0 0 0-7.5-1.3c0 .3 0 .6.3 1 1.2.5 2.4 1.3 3.4 2.2l-9 4C-1 7.4 2 2.4 9.6 0z" clip-rule="evenodd" image-rendering="optimizeQuality" shape-rendering="geometricPrecision" text-rendering="geometricPrecision"/></svg>